<svg width="86" height="16" viewBox="0 0 86 16" fill="none" xmlns="http://www.w3.org/2000/svg">
<path d="M4.00674 4.95461C3.20938 5.38932 2.63129 6.00185 2.25254 6.49583C2.113 6.67366 1.81399 6.55511 1.87379 6.318C2.15287 4.95461 3.12964 4.59895 3.88713 4.53967C4.12634 4.53967 4.20608 4.83606 4.00674 4.95461ZM16.9638 5.96233V11.6727C16.9638 13.5301 15.4489 15.0516 13.5751 15.0911V15.3479C13.5751 15.6443 13.3358 15.8814 13.0368 15.8814H12.698C12.3989 15.8814 12.1597 15.6443 12.1597 15.3479V15.0911H4.52502V15.4665C4.52502 15.7629 4.28581 16 3.9868 16H3.64792C3.34891 16 3.10971 15.7629 3.10971 15.4665V15.0713C1.37545 14.8935 0 13.4313 0 11.6727V5.96233C0 4.08521 1.55485 2.54399 3.44858 2.54399H5.72106C6.11974 2.26736 6.55829 2.06977 7.01677 1.95122L5.84066 0.785425C5.66126 0.607593 5.66126 0.311207 5.84066 0.133375C6.02007 -0.0444582 6.31908 -0.0444582 6.49849 0.133375L8.05333 1.67459L9.62812 0.133375C9.80753 -0.0444582 10.1065 -0.0444582 10.2859 0.133375C10.4654 0.311207 10.4654 0.607593 10.2859 0.785425L9.10984 1.95122C9.58825 2.06977 10.0268 2.28712 10.4055 2.54399H13.5153C15.409 2.54399 16.9638 4.08521 16.9638 5.96233ZM14.0136 6.33776C14.0136 4.99413 12.8973 3.88762 11.5418 3.88762H3.78746C2.43195 3.88762 1.31565 4.99413 1.31565 6.33776V11.3368C1.31565 12.6805 2.43195 13.787 3.78746 13.787H11.5418C12.8973 13.787 14.0136 12.6805 14.0136 11.3368V6.33776ZM16.007 10.2501C16.007 9.97345 15.7678 9.73634 15.4887 9.73634C15.2096 9.73634 14.9704 9.97345 14.9704 10.2501C14.9704 10.5267 15.2096 10.7638 15.4887 10.7638C15.7678 10.7638 16.007 10.5465 16.007 10.2501ZM16.007 8.82742C16.007 8.55079 15.7678 8.31368 15.4887 8.31368C15.2096 8.31368 14.9704 8.55079 14.9704 8.82742C14.9704 9.10405 15.2096 9.34116 15.4887 9.34116C15.7678 9.36092 16.007 9.1238 16.007 8.82742ZM16.007 7.40475C16.007 7.12812 15.7678 6.89101 15.4887 6.89101C15.2096 6.89101 14.9704 7.12812 14.9704 7.40475C14.9704 7.68138 15.2096 7.91849 15.4887 7.91849C15.7678 7.91849 16.007 7.68138 16.007 7.40475Z" fill="#00925D"/>
<path d="M6.1142 6.5792C6.1142 6.3229 6.32373 6.11516 6.5823 6.11516C6.66259 6.11516 6.71349 6.13595 6.80303 6.17126L10.0867 8.06502C10.2394 8.15472 10.3101 8.29887 10.3374 8.46503V8.51164C10.3101 8.67771 10.2394 8.8219 10.0867 8.91166L6.80308 10.8054C6.71349 10.8407 6.66259 10.8614 6.58234 10.8614C6.32378 10.8614 6.11424 10.6537 6.11424 10.3974L6.1142 6.5792Z" fill="#00925D"/>
<path d="M20.274 15.47C20.1873 15.47 20.1137 15.4397 20.053 15.379C20.001 15.327 19.975 15.2577 19.975 15.171V6.539C19.975 6.45233 20.001 6.383 20.053 6.331C20.1137 6.27033 20.1873 6.24 20.274 6.24H20.872C20.9587 6.24 21.028 6.27033 21.08 6.331C21.1407 6.383 21.171 6.45233 21.171 6.539V7.111C21.379 6.825 21.6563 6.58667 22.003 6.396C22.3497 6.20533 22.783 6.11 23.303 6.11C23.7883 6.11 24.2 6.19233 24.538 6.357C24.8847 6.52167 25.1663 6.747 25.383 7.033C25.6083 7.319 25.7773 7.644 25.89 8.008C26.0027 8.372 26.0633 8.762 26.072 9.178C26.0807 9.31667 26.085 9.464 26.085 9.62C26.085 9.776 26.0807 9.92333 26.072 10.062C26.0633 10.4693 26.0027 10.8593 25.89 11.232C25.7773 11.596 25.6083 11.921 25.383 12.207C25.1663 12.4843 24.8847 12.7097 24.538 12.883C24.2 13.0477 23.7883 13.13 23.303 13.13C22.8003 13.13 22.3757 13.039 22.029 12.857C21.691 12.6663 21.4137 12.4323 21.197 12.155V15.171C21.197 15.2577 21.171 15.327 21.119 15.379C21.067 15.4397 20.9933 15.47 20.898 15.47H20.274ZM23.03 12.077C23.4807 12.077 23.8317 11.9817 24.083 11.791C24.343 11.5917 24.5293 11.336 24.642 11.024C24.7547 10.7033 24.8197 10.361 24.837 9.997C24.8457 9.74567 24.8457 9.49433 24.837 9.243C24.8197 8.879 24.7547 8.541 24.642 8.229C24.5293 7.90833 24.343 7.65267 24.083 7.462C23.8317 7.26267 23.4807 7.163 23.03 7.163C22.6053 7.163 22.2587 7.26267 21.99 7.462C21.73 7.66133 21.535 7.917 21.405 8.229C21.2837 8.53233 21.2143 8.84433 21.197 9.165C21.1883 9.30367 21.184 9.46833 21.184 9.659C21.184 9.84967 21.1883 10.0187 21.197 10.166C21.2057 10.4693 21.275 10.7683 21.405 11.063C21.5437 11.3577 21.7473 11.6003 22.016 11.791C22.2847 11.9817 22.6227 12.077 23.03 12.077ZM30.3971 13.13C29.5045 13.13 28.7938 12.857 28.2651 12.311C27.7365 11.7563 27.4461 11.0023 27.3941 10.049C27.3855 9.93633 27.3811 9.79333 27.3811 9.62C27.3811 9.438 27.3855 9.29067 27.3941 9.178C27.4288 8.56267 27.5718 8.02533 27.8231 7.566C28.0745 7.098 28.4168 6.73833 28.8501 6.487C29.2921 6.23567 29.8078 6.11 30.3971 6.11C31.0558 6.11 31.6061 6.24867 32.0481 6.526C32.4988 6.80333 32.8411 7.19767 33.0751 7.709C33.3091 8.22033 33.4261 8.81833 33.4261 9.503V9.724C33.4261 9.81933 33.3958 9.893 33.3351 9.945C33.2831 9.997 33.2138 10.023 33.1271 10.023H28.6291C28.6291 10.0317 28.6291 10.049 28.6291 10.075C28.6291 10.101 28.6291 10.1227 28.6291 10.14C28.6465 10.4953 28.7245 10.829 28.8631 11.141C29.0018 11.4443 29.2011 11.6913 29.4611 11.882C29.7211 12.0727 30.0331 12.168 30.3971 12.168C30.7091 12.168 30.9691 12.1203 31.1771 12.025C31.3851 11.9297 31.5541 11.8257 31.6841 11.713C31.8141 11.5917 31.9008 11.5007 31.9441 11.44C32.0221 11.3273 32.0828 11.2623 32.1261 11.245C32.1695 11.219 32.2388 11.206 32.3341 11.206H32.9581C33.0448 11.206 33.1141 11.232 33.1661 11.284C33.2268 11.3273 33.2528 11.3923 33.2441 11.479C33.2355 11.609 33.1661 11.7693 33.0361 11.96C32.9061 12.142 32.7198 12.324 32.4771 12.506C32.2345 12.688 31.9398 12.8397 31.5931 12.961C31.2465 13.0737 30.8478 13.13 30.3971 13.13ZM28.6291 9.126H32.1911V9.087C32.1911 8.697 32.1175 8.35033 31.9701 8.047C31.8315 7.74367 31.6278 7.50533 31.3591 7.332C31.0905 7.15 30.7698 7.059 30.3971 7.059C30.0245 7.059 29.7038 7.15 29.4351 7.332C29.1751 7.50533 28.9758 7.74367 28.8371 8.047C28.6985 8.35033 28.6291 8.697 28.6291 9.087V9.126ZM35.2926 13C35.2059 13 35.1322 12.974 35.0716 12.922C35.0196 12.8613 34.9936 12.7877 34.9936 12.701V4.069C34.9936 3.98233 35.0196 3.913 35.0716 3.861C35.1322 3.80033 35.2059 3.77 35.2926 3.77H35.9036C35.9989 3.77 36.0726 3.80033 36.1246 3.861C36.1766 3.913 36.2026 3.98233 36.2026 4.069V12.701C36.2026 12.7877 36.1766 12.8613 36.1246 12.922C36.0726 12.974 35.9989 13 35.9036 13H35.2926ZM38.5676 13C38.481 13 38.4073 12.974 38.3466 12.922C38.2946 12.8613 38.2686 12.7877 38.2686 12.701V6.539C38.2686 6.45233 38.2946 6.383 38.3466 6.331C38.4073 6.27033 38.481 6.24 38.5676 6.24H39.1916C39.2783 6.24 39.3476 6.27033 39.3996 6.331C39.4516 6.383 39.4776 6.45233 39.4776 6.539V12.701C39.4776 12.7877 39.4516 12.8613 39.3996 12.922C39.3476 12.974 39.2783 13 39.1916 13H38.5676ZM38.4636 4.979C38.377 4.979 38.3033 4.953 38.2426 4.901C38.1906 4.84033 38.1646 4.76667 38.1646 4.68V3.978C38.1646 3.89133 38.1906 3.822 38.2426 3.77C38.3033 3.70933 38.377 3.679 38.4636 3.679H39.2826C39.3693 3.679 39.4386 3.70933 39.4906 3.77C39.5513 3.822 39.5816 3.89133 39.5816 3.978V4.68C39.5816 4.76667 39.5513 4.84033 39.4906 4.901C39.4386 4.953 39.3693 4.979 39.2826 4.979H38.4636ZM43.8333 13.13C43.3479 13.13 42.9319 13.0693 42.5853 12.948C42.2386 12.8267 41.9569 12.6793 41.7403 12.506C41.5236 12.3327 41.3589 12.1593 41.2463 11.986C41.1423 11.8127 41.0859 11.674 41.0773 11.57C41.0686 11.4747 41.0989 11.401 41.1683 11.349C41.2376 11.297 41.3069 11.271 41.3763 11.271H41.9483C42.0003 11.271 42.0393 11.2797 42.0653 11.297C42.0999 11.3057 42.1433 11.3403 42.1953 11.401C42.3079 11.5223 42.4336 11.6437 42.5723 11.765C42.7109 11.8863 42.8799 11.986 43.0793 12.064C43.2873 12.142 43.5429 12.181 43.8463 12.181C44.2883 12.181 44.6523 12.0987 44.9383 11.934C45.2243 11.7607 45.3673 11.5093 45.3673 11.18C45.3673 10.9633 45.3066 10.79 45.1853 10.66C45.0726 10.53 44.8646 10.413 44.5613 10.309C44.2666 10.205 43.8593 10.0967 43.3393 9.984C42.8193 9.86267 42.4076 9.71533 42.1043 9.542C41.8009 9.36 41.5843 9.14767 41.4543 8.905C41.3243 8.65367 41.2593 8.372 41.2593 8.06C41.2593 7.73933 41.3546 7.43167 41.5453 7.137C41.7359 6.83367 42.0133 6.58667 42.3773 6.396C42.7499 6.20533 43.2136 6.11 43.7683 6.11C44.2189 6.11 44.6046 6.16633 44.9253 6.279C45.2459 6.39167 45.5103 6.53467 45.7183 6.708C45.9263 6.87267 46.0823 7.03733 46.1863 7.202C46.2903 7.36667 46.3466 7.50533 46.3553 7.618C46.3639 7.70467 46.3379 7.77833 46.2773 7.839C46.2166 7.891 46.1473 7.917 46.0693 7.917H45.5233C45.4626 7.917 45.4106 7.904 45.3673 7.878C45.3326 7.852 45.2979 7.82167 45.2633 7.787C45.1766 7.67433 45.0726 7.56167 44.9513 7.449C44.8386 7.33633 44.6869 7.24533 44.4963 7.176C44.3143 7.098 44.0716 7.059 43.7683 7.059C43.3349 7.059 43.0099 7.15 42.7933 7.332C42.5766 7.514 42.4683 7.74367 42.4683 8.021C42.4683 8.18567 42.5159 8.333 42.6113 8.463C42.7066 8.593 42.8886 8.71 43.1573 8.814C43.4259 8.918 43.8246 9.03067 44.3532 9.152C44.9253 9.26467 45.3759 9.41633 45.7053 9.607C46.0346 9.79767 46.2686 10.0187 46.4073 10.27C46.5459 10.5213 46.6153 10.8117 46.6153 11.141C46.6153 11.505 46.5069 11.8387 46.2903 12.142C46.0823 12.4453 45.7703 12.688 45.3543 12.87C44.9469 13.0433 44.4399 13.13 43.8333 13.13ZM48.2146 9.646C48.1279 9.646 48.0542 9.62 47.9936 9.568C47.9416 9.50733 47.9156 9.43367 47.9156 9.347V8.853C47.9156 8.76633 47.9416 8.697 47.9936 8.645C48.0542 8.58433 48.1279 8.554 48.2146 8.554H52.1146C52.2012 8.554 52.2706 8.58433 52.3226 8.645C52.3832 8.697 52.4136 8.76633 52.4136 8.853V9.347C52.4136 9.43367 52.3832 9.50733 52.3226 9.568C52.2706 9.62 52.2012 9.646 52.1146 9.646H48.2146ZM54.5894 15.47C54.5028 15.47 54.4291 15.4397 54.3684 15.379C54.3164 15.327 54.2904 15.2577 54.2904 15.171V6.539C54.2904 6.45233 54.3164 6.383 54.3684 6.331C54.4291 6.27033 54.5028 6.24 54.5894 6.24H55.1874C55.2741 6.24 55.3434 6.27033 55.3954 6.331C55.4561 6.383 55.4864 6.45233 55.4864 6.539V7.111C55.6944 6.825 55.9718 6.58667 56.3184 6.396C56.6651 6.20533 57.0984 6.11 57.6184 6.11C58.1038 6.11 58.5154 6.19233 58.8534 6.357C59.2001 6.52167 59.4818 6.747 59.6984 7.033C59.9238 7.319 60.0928 7.644 60.2054 8.008C60.3181 8.372 60.3788 8.762 60.3874 9.178C60.3961 9.31667 60.4004 9.464 60.4004 9.62C60.4004 9.776 60.3961 9.92333 60.3874 10.062C60.3788 10.4693 60.3181 10.8593 60.2054 11.232C60.0928 11.596 59.9238 11.921 59.6984 12.207C59.4818 12.4843 59.2001 12.7097 58.8534 12.883C58.5154 13.0477 58.1038 13.13 57.6184 13.13C57.1158 13.13 56.6911 13.039 56.3444 12.857C56.0064 12.6663 55.7291 12.4323 55.5124 12.155V15.171C55.5124 15.2577 55.4864 15.327 55.4344 15.379C55.3824 15.4397 55.3088 15.47 55.2134 15.47H54.5894ZM57.3454 12.077C57.7961 12.077 58.1471 11.9817 58.3984 11.791C58.6584 11.5917 58.8448 11.336 58.9574 11.024C59.0701 10.7033 59.1351 10.361 59.1524 9.997C59.1611 9.74567 59.1611 9.49433 59.1524 9.243C59.1351 8.879 59.0701 8.541 58.9574 8.229C58.8448 7.90833 58.6584 7.65267 58.3984 7.462C58.1471 7.26267 57.7961 7.163 57.3454 7.163C56.9208 7.163 56.5741 7.26267 56.3054 7.462C56.0454 7.66133 55.8504 7.917 55.7204 8.229C55.5991 8.53233 55.5298 8.84433 55.5124 9.165C55.5038 9.30367 55.4994 9.46833 55.4994 9.659C55.4994 9.84967 55.5038 10.0187 55.5124 10.166C55.5211 10.4693 55.5904 10.7683 55.7204 11.063C55.8591 11.3577 56.0628 11.6003 56.3314 11.791C56.6001 11.9817 56.9381 12.077 57.3454 12.077ZM62.3206 13C62.2339 13 62.1602 12.974 62.0996 12.922C62.0476 12.8613 62.0216 12.7877 62.0216 12.701V6.552C62.0216 6.46533 62.0476 6.39167 62.0996 6.331C62.1602 6.27033 62.2339 6.24 62.3206 6.24H62.9186C63.0052 6.24 63.0789 6.27033 63.1396 6.331C63.2002 6.39167 63.2306 6.46533 63.2306 6.552V7.124C63.4039 6.82933 63.6422 6.60833 63.9456 6.461C64.2489 6.31367 64.6129 6.24 65.0376 6.24H65.5576C65.6442 6.24 65.7136 6.27033 65.7656 6.331C65.8176 6.383 65.8436 6.45233 65.8436 6.539V7.072C65.8436 7.15867 65.8176 7.228 65.7656 7.28C65.7136 7.332 65.6442 7.358 65.5576 7.358H64.7776C64.3096 7.358 63.9412 7.49667 63.6726 7.774C63.4039 8.04267 63.2696 8.411 63.2696 8.879V12.701C63.2696 12.7877 63.2392 12.8613 63.1786 12.922C63.1179 12.974 63.0442 13 62.9576 13H62.3206ZM69.6021 13.13C68.9434 13.13 68.3931 13.0043 67.9511 12.753C67.5091 12.5017 67.1711 12.155 66.9371 11.713C66.7031 11.2623 66.5731 10.751 66.5471 10.179C66.5384 10.0317 66.5341 9.84533 66.5341 9.62C66.5341 9.386 66.5384 9.19967 66.5471 9.061C66.5731 8.48033 66.7031 7.969 66.9371 7.527C67.1798 7.085 67.5221 6.73833 67.9641 6.487C68.4061 6.23567 68.9521 6.11 69.6021 6.11C70.2521 6.11 70.7981 6.23567 71.2401 6.487C71.6821 6.73833 72.0201 7.085 72.2541 7.527C72.4968 7.969 72.6311 8.48033 72.6571 9.061C72.6658 9.19967 72.6701 9.386 72.6701 9.62C72.6701 9.84533 72.6658 10.0317 72.6571 10.179C72.6311 10.751 72.5011 11.2623 72.2671 11.713C72.0331 12.155 71.6951 12.5017 71.2531 12.753C70.8111 13.0043 70.2608 13.13 69.6021 13.13ZM69.6021 12.129C70.1394 12.129 70.5684 11.96 70.8891 11.622C71.2098 11.2753 71.3831 10.7727 71.4091 10.114C71.4178 9.984 71.4221 9.81933 71.4221 9.62C71.4221 9.42067 71.4178 9.256 71.4091 9.126C71.3831 8.46733 71.2098 7.969 70.8891 7.631C70.5684 7.28433 70.1394 7.111 69.6021 7.111C69.0648 7.111 68.6314 7.28433 68.3021 7.631C67.9814 7.969 67.8124 8.46733 67.7951 9.126C67.7864 9.256 67.7821 9.42067 67.7821 9.62C67.7821 9.81933 67.7864 9.984 67.7951 10.114C67.8124 10.7727 67.9814 11.2753 68.3021 11.622C68.6314 11.96 69.0648 12.129 69.6021 12.129Z" fill="white"/>
<path d="M80.4675 12.505C80.3575 12.505 80.2675 12.47 80.1975 12.4C80.1275 12.33 80.0925 12.24 80.0925 12.13V9.385H77.4225C77.3125 9.385 77.2175 9.35 77.1375 9.28C77.0675 9.21 77.0325 9.12 77.0325 9.01V7.915C77.0325 7.805 77.0675 7.715 77.1375 7.645C77.2175 7.575 77.3125 7.54 77.4225 7.54H80.0925V4.87C80.0925 4.76 80.1275 4.67 80.1975 4.6C80.2675 4.53 80.3575 4.495 80.4675 4.495H81.6975C81.7975 4.495 81.8825 4.53 81.9525 4.6C82.0325 4.67 82.0725 4.76 82.0725 4.87V7.54H84.7275C84.8375 7.54 84.9275 7.575 84.9975 7.645C85.0675 7.715 85.1025 7.805 85.1025 7.915V9.01C85.1025 9.12 85.0675 9.21 84.9975 9.28C84.9275 9.35 84.8375 9.385 84.7275 9.385H82.0725V12.13C82.0725 12.24 82.0325 12.33 81.9525 12.4C81.8825 12.47 81.7975 12.505 81.6975 12.505H80.4675Z" fill="#00925D"/>
</svg>
